<svg width="44" height="175" viewBox="0 0 44 175" fill="none" xmlns="http://www.w3.org/2000/svg">
<path fill-rule="evenodd" clip-rule="evenodd" d="M43.75 21.875C43.75 33.9562 33.9562 43.75 21.875 43.75C9.79377 43.75 0 33.9562 0 21.875C0 9.79377 9.79377 0 21.875 0C33.9562 0 43.75 9.79377 43.75 21.875ZM43.75 87.5C43.75 99.5812 33.9562 109.375 21.875 109.375C9.79377 109.375 0 99.5812 0 87.5C0 75.4188 9.79377 65.625 21.875 65.625C33.9562 65.625 43.75 75.4188 43.75 87.5ZM21.875 175C33.9562 175 43.75 165.206 43.75 153.125C43.75 141.044 33.9562 131.25 21.875 131.25C9.79377 131.25 0 141.044 0 153.125C0 165.206 9.79377 175 21.875 175Z" fill="white"/>
</svg>
